# xmcd
#
# Track frame offsets: 
#        150
#        16612
#        38837
#        56860
#        73007
#        93698
#        108672
#        126840
#        144619
#        161016
#        180093
#        197052
#        213100
#
# Disc length: 3158 seconds
#
# Revision: 0
# Processed by: cddbd v1.5.2PL0 Copyright (c) Steve Scherf et al.
# Submitted via: ExactAudioCopyFreeDBPlugin 1.0
#
DISCID=b50c540d
DTITLE=Mike Goudreau and the Boppin Blues Band - 20 Years of Bop and Blues
DYEAR=2012
DGENRE=Blues
TTITLE0=I'm Headin' Out the Door
TTITLE1=Mean Old Man
TTITLE2=Shake a Tail Feather
TTITLE3=I'll Be On My Way
TTITLE4=She's Spreadin' Rumors
TTITLE5=I'll Be On Your Side
TTITLE6=Movin' to the Groovin'
TTITLE7=What Did I Say
TTITLE8=Happy Birthday Blues
TTITLE9=In the Pocket
TTITLE10=I Had to Draw the Line
TTITLE11=Ca Peut Pas Marcher
TTITLE12=See You Later Babe
EXTD=
EXTT0=
EXTT1=
EXTT2=
EXTT3=
EXTT4=
EXTT5=
EXTT6=
EXTT7=
EXTT8=
EXTT9=
EXTT10=
EXTT11=
EXTT12=
PLAYORDER=
